<svg width="26" height="28" viewBox="0 0 26 28" fill="none" xmlns="http://www.w3.org/2000/svg">
<path fill-rule="evenodd" clip-rule="evenodd" d="M13.192 20.6435C9.89172 20.6435 4.77114 22.0239 4.77114 23.8592V27.3173H21.2283V23.8592C21.2283 22.0466 16.4923 20.6435 13.192 20.6435ZM5.86829 26.6172V23.7596C6.74441 22.5252 10.3055 21.7289 13.1774 21.7289C16.0045 21.7289 19.2568 22.5119 20.1312 23.7071V26.6172H5.86829Z" fill="#79819C"/>
<path fill-rule="evenodd" clip-rule="evenodd" d="M6.96543 1.93142V9.17037C6.96543 9.60594 7.13878 10.025 7.44708 10.3333L9.15972 12.0482V13.6599C9.15972 13.6599 2.49676 16.9842 1.2921 17.5855C0.734751 17.8641 0.382568 18.4347 0.382568 19.0578V26.0686C0.382568 26.977 1.11985 27.7143 2.02828 27.7143H5.31862H5.31971H23.9712C24.4078 27.7143 24.8258 27.5409 25.1352 27.2327C25.4435 26.9233 25.6169 26.5052 25.6169 26.0686V19.0578C25.6169 18.4347 25.2647 17.8641 24.7073 17.5855C23.5027 16.9842 16.8397 13.661 16.8397 13.661V12.0328L18.5524 10.3202C18.8607 10.0119 19.034 9.59278 19.034 9.15721V1.93142C19.034 1.02299 18.2967 0.285706 17.3883 0.285706H8.61114C7.70271 0.285706 6.96543 1.02299 6.96543 1.93142ZM5.86829 16.5256V23.7596V26.6172H20.1312V23.7071V16.5333L16.8397 14.8876V15.6073C16.8397 16.157 16.5643 16.6715 16.1068 16.9766L15.8414 17.1536L14.5297 18.0282L13.5483 18.6826L13.4754 18.7314C13.4213 18.7655 13.3756 18.7953 13.3361 18.8212C13.1815 18.9221 13.1191 18.9629 12.9997 18.9629C12.8729 18.9629 12.7798 18.8986 12.7023 18.845C12.6881 18.8352 12.6744 18.8258 12.6611 18.8171C12.5754 18.7614 12.4511 18.6826 12.4511 18.6826L9.89261 16.9766C9.71115 16.8556 9.55834 16.7016 9.44 16.5256C9.25997 16.2579 9.15972 15.939 9.15972 15.6073V14.8865L5.86829 16.5256ZM21.2283 17.0731V26.6172H23.9712C24.1171 26.6172 24.2564 26.559 24.3595 26.457C24.4616 26.3538 24.5197 26.2145 24.5197 26.0686V19.0578C24.5197 18.8505 24.4023 18.6596 24.2169 18.5674L21.2283 17.0731ZM4.77114 17.0731L1.78252 18.5674C1.59711 18.6607 1.47971 18.8505 1.47971 19.0578V26.0686C1.47971 26.3714 1.72547 26.6172 2.02828 26.6172H4.77114V17.0731ZM15.7426 15.6073V13.13L15.6208 13.2528L14.7321 13.9362C14.166 14.3532 13.5505 14.4366 12.9997 14.4366C12.449 14.4366 11.7302 14.2515 11.0161 13.751L10.4138 13.3033L10.2569 13.1475V15.6073C10.2569 15.7905 10.349 15.9617 10.5015 16.0637L12.9997 17.7292L15.4979 16.0637C15.6504 15.9617 15.7426 15.7905 15.7426 15.6073ZM17.9369 1.93142V6.1276C17.9369 6.1276 15.1995 5.02866 12.9997 5.02866C10.7999 5.02866 8.06257 6.1276 8.06257 6.1276V1.93142C8.06257 1.62861 8.30833 1.38285 8.61114 1.38285H17.3883C17.6911 1.38285 17.9369 1.62861 17.9369 1.93142ZM13.5491 13.2123L14.166 12.8788L14.9669 12.3543L17.7767 9.5445C17.8787 9.44137 17.9369 9.30203 17.9369 9.15721V7.22475C17.9369 7.22475 14.8164 6.1276 12.9997 6.1276C11.183 6.1276 8.06257 7.22475 8.06257 7.22475V9.17037C8.06257 9.3152 8.12072 9.45453 8.22276 9.55767L11.0161 12.3543L11.8389 12.8788L12.4086 13.2123C12.4086 13.2123 12.6761 13.3357 12.9997 13.3357C13.3233 13.3357 13.5491 13.2123 13.5491 13.2123Z" fill="#79819C"/>
<path d="M16.8397 15.6073C16.8397 16.157 16.5643 16.6715 16.1068 16.9766L15.8414 17.1536L16.1068 18.5674L14.5297 18.0282L13.5483 18.6826L13.4754 18.7314C13.4213 18.7655 13.3756 18.7953 13.3361 18.8212C13.1815 18.9221 13.1191 18.9629 12.9997 18.9629L17.3752 19.7172L16.8397 15.6073Z" fill="#79819C"/>
<path d="M9.16944 15.6073C9.16944 16.157 9.44483 16.6716 9.90234 16.9766L10.1678 17.1536L9.89261 18.5674L11.4795 18.0282L12.4609 18.6826L12.5337 18.7315C12.5879 18.7655 12.6335 18.7953 12.6731 18.8212C12.8277 18.9221 12.89 18.9629 13.0094 18.9629L8.65044 19.7172L9.16944 15.6073Z" fill="#79819C"/>
<path d="M13.0021 2.71796C15.2019 2.71796 17.9392 3.8169 17.9392 3.8169V4.91404C17.9392 4.91404 14.8188 3.8169 13.0021 3.8169C11.1854 3.8169 8.06494 4.91404 8.06494 4.91404V3.8169C8.06494 3.8169 10.8023 2.71796 13.0021 2.71796Z" fill="#79819C"/>
</svg>
