<svg width="463" height="73" viewBox="0 0 463 73" fill="none" xmlns="http://www.w3.org/2000/svg">
<path d="M7.66763 0.57735C8.28643 0.220084 9.04882 0.220085 9.66763 0.57735L15.174 3.75646C15.7928 4.11373 16.174 4.77398 16.174 5.48851V11.8467C16.174 12.5613 15.7928 13.2215 15.174 13.5788L9.66762 16.7579C9.04882 17.1152 8.28643 17.1152 7.66763 16.7579L2.16124 13.5788C1.54244 13.2215 1.16124 12.5613 1.16124 11.8467V5.48851C1.16124 4.77398 1.54244 4.11373 2.16124 3.75646L7.66763 0.57735Z" fill="#FF773D"/>
<circle cx="329.042" cy="52.0424" r="7.04245" fill="url(#paint0_linear_2502_57291)"/>
<rect x="121.656" y="57.2363" width="15.3845" height="119.105" transform="rotate(103.321 121.656 57.2363)" fill="#EF5DA8"/>
<rect x="4.43201" y="43.7573" width="5.08356" height="125.509" transform="rotate(-89.4933 4.43201 43.7573)" fill="#FFD346"/>
<path d="M33.5998 20.004H35.7978V23.84H39.8438V20.004H42.0418V30H39.8438V25.688H35.7978V30H33.5998V20.004ZM44.8447 32.534C44.6394 32.534 44.4341 32.5247 44.2287 32.506C44.0327 32.4967 43.8321 32.4827 43.6267 32.464V30.826C43.7854 30.8447 43.9487 30.8587 44.1167 30.868C44.2941 30.8867 44.4667 30.896 44.6347 30.896C44.9334 30.896 45.1621 30.812 45.3207 30.644C45.4794 30.476 45.5587 30.2613 45.5587 30C45.5587 29.8413 45.5307 29.692 45.4747 29.552L42.9407 22.762H45.0547L46.6927 27.718H46.7207L48.3027 22.762H50.3607L47.3367 30.896C47.1221 31.484 46.8234 31.904 46.4407 32.156C46.0581 32.408 45.5261 32.534 44.8447 32.534ZM53.0285 25.94L50.4805 22.762H52.6785L55.0165 25.786V22.762H56.8925V25.786L59.2305 22.762H61.4285L58.7825 25.87L61.7085 30H59.4125L57.3265 26.878L56.8925 27.438V30H55.0165V27.55L54.4985 26.878L52.4965 30H50.2005L53.0285 25.94ZM62.3878 22.762H64.3758V25.394H67.1898V22.762H69.1778V30H67.1898V26.962H64.3758V30H62.3878V22.762ZM72.8427 30.182C72.4973 30.182 72.1753 30.14 71.8767 30.056C71.578 29.972 71.3167 29.8413 71.0927 29.664C70.8687 29.4867 70.6913 29.2627 70.5607 28.992C70.4393 28.7213 70.3787 28.3993 70.3787 28.026C70.3787 27.6153 70.4487 27.2793 70.5887 27.018C70.738 26.7473 70.9247 26.5327 71.1487 26.374C71.382 26.2153 71.6433 26.0987 71.9327 26.024C72.2313 25.94 72.53 25.8747 72.8287 25.828C73.1273 25.7813 73.4213 25.744 73.7107 25.716C74 25.688 74.2567 25.646 74.4807 25.59C74.7047 25.534 74.882 25.4547 75.0127 25.352C75.1433 25.24 75.204 25.0813 75.1947 24.876C75.1947 24.6707 75.1573 24.5027 75.0827 24.372C75.0173 24.2413 74.924 24.1433 74.8027 24.078C74.6907 24.0033 74.5553 23.9567 74.3967 23.938C74.2473 23.91 74.084 23.896 73.9067 23.896C73.5147 23.896 73.2067 23.98 72.9827 24.148C72.7587 24.316 72.628 24.596 72.5907 24.988H70.6027C70.6307 24.5307 70.7473 24.148 70.9527 23.84C71.158 23.5227 71.4193 23.2707 71.7367 23.084C72.054 22.8973 72.4087 22.7667 72.8007 22.692C73.1927 22.608 73.594 22.566 74.0047 22.566C74.3687 22.566 74.7373 22.594 75.1107 22.65C75.484 22.6967 75.8247 22.7947 76.1327 22.944C76.4407 23.0933 76.6927 23.3033 76.8887 23.574C77.0847 23.8447 77.1827 24.1947 77.1827 24.624V28.39C77.1827 28.7167 77.2013 29.0293 77.2387 29.328C77.276 29.6267 77.3413 29.8507 77.4347 30H75.4187C75.3813 29.888 75.3487 29.776 75.3207 29.664C75.302 29.5427 75.288 29.4213 75.2787 29.3C74.9613 29.6267 74.588 29.8553 74.1587 29.986C73.7293 30.1167 73.2907 30.182 72.8427 30.182ZM73.5847 28.866C73.9767 28.866 74.28 28.8007 74.4947 28.67C74.7093 28.5393 74.868 28.3853 74.9707 28.208C75.0733 28.0213 75.134 27.8347 75.1527 27.648C75.1807 27.4613 75.1947 27.312 75.1947 27.2V26.458C75.1107 26.5327 75.008 26.5933 74.8867 26.64C74.7653 26.6773 74.63 26.71 74.4807 26.738C74.3313 26.766 74.1773 26.7893 74.0187 26.808C73.86 26.8267 73.7013 26.85 73.5427 26.878C73.384 26.906 73.2347 26.9433 73.0947 26.99C72.9547 27.0367 72.8287 27.102 72.7167 27.186C72.614 27.2607 72.53 27.3587 72.4647 27.48C72.3993 27.6013 72.3667 27.7553 72.3667 27.942C72.3667 28.1287 72.3993 28.2827 72.4647 28.404C72.53 28.516 72.6187 28.6093 72.7307 28.684C72.8427 28.7493 72.9733 28.796 73.1227 28.824C73.272 28.852 73.426 28.866 73.5847 28.866ZM82.6222 22.762H89.2722V30H87.2842V24.26H84.6102V30H82.6222V22.762ZM94.2983 30.182C93.729 30.182 93.2157 30.0933 92.7583 29.916C92.301 29.7387 91.909 29.4867 91.5823 29.16C91.2557 28.824 91.0037 28.4227 90.8263 27.956C90.649 27.4893 90.5603 26.9667 90.5603 26.388C90.5603 25.8093 90.649 25.2867 90.8263 24.82C91.0037 24.344 91.2557 23.9427 91.5823 23.616C91.909 23.28 92.301 23.0233 92.7583 22.846C93.2157 22.6593 93.729 22.566 94.2983 22.566C94.8677 22.566 95.381 22.6593 95.8383 22.846C96.305 23.0233 96.7017 23.28 97.0283 23.616C97.355 23.9427 97.607 24.344 97.7843 24.82C97.9617 25.2867 98.0503 25.8093 98.0503 26.388C98.0503 26.9667 97.9617 27.4893 97.7843 27.956C97.607 28.4227 97.355 28.824 97.0283 29.16C96.7017 29.4867 96.305 29.7387 95.8383 29.916C95.381 30.0933 94.8677 30.182 94.2983 30.182ZM94.2983 28.698C94.6343 28.698 94.9143 28.6327 95.1383 28.502C95.3717 28.3713 95.5537 28.1987 95.6843 27.984C95.8243 27.76 95.9223 27.5127 95.9783 27.242C96.0343 26.962 96.0623 26.6773 96.0623 26.388C96.0623 26.0987 96.0343 25.814 95.9783 25.534C95.9223 25.254 95.8243 25.0067 95.6843 24.792C95.5537 24.5773 95.3717 24.4047 95.1383 24.274C94.9143 24.134 94.6343 24.064 94.2983 24.064C93.9623 24.064 93.6823 24.134 93.4583 24.274C93.2343 24.4047 93.0523 24.5773 92.9123 24.792C92.7817 25.0067 92.6883 25.254 92.6323 25.534C92.5763 25.814 92.5483 26.0987 92.5483 26.388C92.5483 26.6773 92.5763 26.962 92.6323 27.242C92.6883 27.5127 92.7817 27.76 92.9123 27.984C93.0523 28.1987 93.2343 28.3713 93.4583 28.502C93.6823 28.6327 93.9623 28.698 94.2983 28.698ZM99.3429 22.762H102.227L103.725 28.026H103.781L105.279 22.762H108.163V30H106.287V24.498H106.245L104.691 30H102.815L101.261 24.498H101.219V30H99.3429V22.762ZM113.193 30.182C112.624 30.182 112.11 30.0933 111.653 29.916C111.196 29.7387 110.804 29.4867 110.477 29.16C110.15 28.824 109.898 28.4227 109.721 27.956C109.544 27.4893 109.455 26.9667 109.455 26.388C109.455 25.8093 109.544 25.2867 109.721 24.82C109.898 24.344 110.15 23.9427 110.477 23.616C110.804 23.28 111.196 23.0233 111.653 22.846C112.11 22.6593 112.624 22.566 113.193 22.566C113.762 22.566 114.276 22.6593 114.733 22.846C115.2 23.0233 115.596 23.28 115.923 23.616C116.25 23.9427 116.502 24.344 116.679 24.82C116.856 25.2867 116.945 25.8093 116.945 26.388C116.945 26.9667 116.856 27.4893 116.679 27.956C116.502 28.4227 116.25 28.824 115.923 29.16C115.596 29.4867 115.2 29.7387 114.733 29.916C114.276 30.0933 113.762 30.182 113.193 30.182ZM113.193 28.698C113.529 28.698 113.809 28.6327 114.033 28.502C114.266 28.3713 114.448 28.1987 114.579 27.984C114.719 27.76 114.817 27.5127 114.873 27.242C114.929 26.962 114.957 26.6773 114.957 26.388C114.957 26.0987 114.929 25.814 114.873 25.534C114.817 25.254 114.719 25.0067 114.579 24.792C114.448 24.5773 114.266 24.4047 114.033 24.274C113.809 24.134 113.529 24.064 113.193 24.064C112.857 24.064 112.577 24.134 112.353 24.274C112.129 24.4047 111.947 24.5773 111.807 24.792C111.676 25.0067 111.583 25.254 111.527 25.534C111.471 25.814 111.443 26.0987 111.443 26.388C111.443 26.6773 111.471 26.962 111.527 27.242C111.583 27.5127 111.676 27.76 111.807 27.984C111.947 28.1987 112.129 28.3713 112.353 28.502C112.577 28.6327 112.857 28.698 113.193 28.698ZM127.155 30H118.237V22.762H120.211V28.502H122.185V22.762H124.159V28.502H126.133V22.762H128.107V28.502H129.017V31.988H127.155V30ZM129.913 22.762H131.901V25.254H133.819C134.183 25.254 134.524 25.3053 134.841 25.408C135.168 25.5013 135.448 25.6507 135.681 25.856C135.924 26.052 136.115 26.2993 136.255 26.598C136.395 26.8873 136.465 27.228 136.465 27.62C136.465 28.0213 136.395 28.3713 136.255 28.67C136.125 28.9687 135.933 29.216 135.681 29.412C135.439 29.608 135.149 29.7573 134.813 29.86C134.487 29.9533 134.127 30 133.735 30H129.913V22.762ZM133.259 28.628C133.623 28.628 133.913 28.5487 134.127 28.39C134.351 28.2313 134.463 27.9747 134.463 27.62C134.463 27.2653 134.347 27.0087 134.113 26.85C133.88 26.682 133.591 26.598 133.245 26.598H131.901V28.628H133.259ZM141.727 27.844V30H139.529V27.844H141.727ZM137.275 23.224C137.284 22.72 137.368 22.258 137.527 21.838C137.695 21.418 137.924 21.054 138.213 20.746C138.512 20.438 138.866 20.2 139.277 20.032C139.697 19.8547 140.164 19.766 140.677 19.766C141.34 19.766 141.89 19.8593 142.329 20.046C142.777 20.2233 143.136 20.4473 143.407 20.718C143.678 20.9887 143.869 21.2827 143.981 21.6C144.102 21.908 144.163 22.1973 144.163 22.468C144.163 22.916 144.102 23.2847 143.981 23.574C143.869 23.8633 143.724 24.1107 143.547 24.316C143.379 24.5213 143.188 24.6987 142.973 24.848C142.768 24.988 142.572 25.1327 142.385 25.282C142.198 25.422 142.03 25.5853 141.881 25.772C141.741 25.9587 141.652 26.192 141.615 26.472V27.004H139.725V26.374C139.753 25.9727 139.828 25.6367 139.949 25.366C140.08 25.0953 140.229 24.8667 140.397 24.68C140.565 24.484 140.742 24.316 140.929 24.176C141.116 24.036 141.288 23.896 141.447 23.756C141.606 23.616 141.732 23.462 141.825 23.294C141.928 23.126 141.974 22.916 141.965 22.664C141.965 22.2347 141.858 21.9173 141.643 21.712C141.438 21.5067 141.148 21.404 140.775 21.404C140.523 21.404 140.304 21.4553 140.117 21.558C139.94 21.6513 139.79 21.782 139.669 21.95C139.557 22.1087 139.473 22.3 139.417 22.524C139.361 22.7387 139.333 22.972 139.333 23.224H137.275Z" fill="white"/>
<path d="M153.949 30.224C153.174 30.224 152.484 30.0933 151.877 29.832C151.27 29.5613 150.757 29.1927 150.337 28.726C149.917 28.2593 149.595 27.7133 149.371 27.088C149.147 26.4533 149.035 25.772 149.035 25.044C149.035 24.3067 149.147 23.616 149.371 22.972C149.595 22.328 149.917 21.768 150.337 21.292C150.757 20.816 151.27 20.4427 151.877 20.172C152.484 19.9013 153.174 19.766 153.949 19.766C154.49 19.766 155.008 19.8453 155.503 20.004C155.998 20.1627 156.436 20.396 156.819 20.704C157.211 21.0027 157.533 21.376 157.785 21.824C158.037 22.272 158.196 22.7853 158.261 23.364H156.133C156.096 23.112 156.012 22.8833 155.881 22.678C155.75 22.4633 155.587 22.2767 155.391 22.118C155.195 21.9593 154.971 21.838 154.719 21.754C154.476 21.6607 154.22 21.614 153.949 21.614C153.454 21.614 153.034 21.712 152.689 21.908C152.344 22.0947 152.064 22.3513 151.849 22.678C151.634 22.9953 151.476 23.3593 151.373 23.77C151.28 24.1807 151.233 24.6053 151.233 25.044C151.233 25.464 151.28 25.8747 151.373 26.276C151.476 26.668 151.634 27.0227 151.849 27.34C152.064 27.6573 152.344 27.914 152.689 28.11C153.034 28.2967 153.454 28.39 153.949 28.39C154.621 28.39 155.144 28.1847 155.517 27.774C155.9 27.3633 156.133 26.822 156.217 26.15H158.345C158.289 26.7847 158.144 27.354 157.911 27.858C157.678 28.3527 157.37 28.7773 156.987 29.132C156.604 29.4867 156.156 29.7573 155.643 29.944C155.13 30.1307 154.565 30.224 153.949 30.224ZM159.692 22.762H163.85C164.167 22.762 164.466 22.7993 164.746 22.874C165.026 22.9393 165.269 23.0467 165.474 23.196C165.689 23.336 165.857 23.5227 165.978 23.756C166.099 23.9893 166.16 24.2647 166.16 24.582C166.16 24.9367 166.071 25.2447 165.894 25.506C165.717 25.758 165.479 25.9493 165.18 26.08C165.553 26.1827 165.866 26.3787 166.118 26.668C166.37 26.948 166.496 27.34 166.496 27.844C166.496 28.1987 166.431 28.5113 166.3 28.782C166.179 29.0433 166.006 29.2673 165.782 29.454C165.558 29.6313 165.297 29.7667 164.998 29.86C164.699 29.9533 164.382 30 164.046 30H159.692V22.762ZM163.122 28.712C163.29 28.712 163.453 28.7027 163.612 28.684C163.771 28.656 163.911 28.6093 164.032 28.544C164.153 28.4787 164.251 28.3853 164.326 28.264C164.401 28.1333 164.438 27.9653 164.438 27.76C164.438 27.5547 164.396 27.3867 164.312 27.256C164.237 27.1253 164.135 27.0273 164.004 26.962C163.873 26.8967 163.724 26.8547 163.556 26.836C163.388 26.808 163.215 26.794 163.038 26.794H161.652V28.712H163.122ZM162.968 25.674C163.117 25.674 163.262 25.6647 163.402 25.646C163.542 25.6273 163.668 25.59 163.78 25.534C163.892 25.4687 163.981 25.3847 164.046 25.282C164.111 25.17 164.144 25.0207 164.144 24.834C164.144 24.6567 164.111 24.5167 164.046 24.414C163.981 24.302 163.892 24.218 163.78 24.162C163.677 24.106 163.551 24.0687 163.402 24.05C163.262 24.0313 163.117 24.022 162.968 24.022H161.652V25.674H162.968ZM169.311 27.284C168.797 27.2 168.377 26.9527 168.051 26.542C167.733 26.1313 167.575 25.6273 167.575 25.03C167.575 24.7127 167.631 24.4187 167.743 24.148C167.864 23.868 168.032 23.6253 168.247 23.42C168.461 23.2147 168.713 23.056 169.003 22.944C169.292 22.8227 169.614 22.762 169.969 22.762H174.351V30H172.363V27.452H171.425L169.451 30H167.015L169.311 27.284ZM172.363 24.204H170.781C170.323 24.204 170.011 24.288 169.843 24.456C169.675 24.6147 169.591 24.8293 169.591 25.1C169.591 25.38 169.67 25.604 169.829 25.772C169.997 25.94 170.314 26.024 170.781 26.024H172.363V24.204ZM178.804 30.182C178.347 30.182 177.913 30.1353 177.502 30.042C177.101 29.958 176.746 29.8133 176.438 29.608C176.13 29.4027 175.883 29.1413 175.696 28.824C175.519 28.5067 175.426 28.1147 175.416 27.648H177.306C177.344 28.04 177.493 28.3387 177.754 28.544C178.025 28.7493 178.389 28.852 178.846 28.852C179.294 28.852 179.621 28.7587 179.826 28.572C180.032 28.3853 180.134 28.1567 180.134 27.886C180.134 27.5873 180.036 27.3447 179.84 27.158C179.654 26.9713 179.336 26.878 178.888 26.878H178.118V25.632H178.636C179.056 25.632 179.388 25.5667 179.63 25.436C179.882 25.3053 180.008 25.058 180.008 24.694C180.008 24.4793 179.915 24.2927 179.728 24.134C179.551 23.966 179.266 23.882 178.874 23.882C178.473 23.882 178.156 23.952 177.922 24.092C177.698 24.2227 177.558 24.484 177.502 24.876H175.654C175.692 24.456 175.804 24.1013 175.99 23.812C176.186 23.5133 176.429 23.2753 176.718 23.098C177.017 22.9113 177.353 22.776 177.726 22.692C178.109 22.608 178.506 22.566 178.916 22.566C179.878 22.566 180.62 22.7247 181.142 23.042C181.674 23.35 181.94 23.84 181.94 24.512C181.94 24.7267 181.898 24.9273 181.814 25.114C181.74 25.2913 181.642 25.45 181.52 25.59C181.399 25.73 181.259 25.8467 181.1 25.94C180.942 26.024 180.788 26.08 180.638 26.108V26.136C180.806 26.1547 180.979 26.1967 181.156 26.262C181.343 26.318 181.511 26.416 181.66 26.556C181.81 26.6867 181.931 26.8593 182.024 27.074C182.127 27.2793 182.178 27.5407 182.178 27.858C182.178 28.25 182.094 28.5907 181.926 28.88C181.768 29.1693 181.539 29.412 181.24 29.608C180.951 29.804 180.596 29.9487 180.176 30.042C179.766 30.1353 179.308 30.182 178.804 30.182ZM185.608 30.182C185.263 30.182 184.941 30.14 184.642 30.056C184.344 29.972 184.082 29.8413 183.858 29.664C183.634 29.4867 183.457 29.2627 183.326 28.992C183.205 28.7213 183.144 28.3993 183.144 28.026C183.144 27.6153 183.214 27.2793 183.354 27.018C183.504 26.7473 183.69 26.5327 183.914 26.374C184.148 26.2153 184.409 26.0987 184.698 26.024C184.997 25.94 185.296 25.8747 185.594 25.828C185.893 25.7813 186.187 25.744 186.476 25.716C186.766 25.688 187.022 25.646 187.246 25.59C187.47 25.534 187.648 25.4547 187.778 25.352C187.909 25.24 187.97 25.0813 187.96 24.876C187.96 24.6707 187.923 24.5027 187.848 24.372C187.783 24.2413 187.69 24.1433 187.568 24.078C187.456 24.0033 187.321 23.9567 187.162 23.938C187.013 23.91 186.85 23.896 186.672 23.896C186.28 23.896 185.972 23.98 185.748 24.148C185.524 24.316 185.394 24.596 185.356 24.988H183.368C183.396 24.5307 183.513 24.148 183.718 23.84C183.924 23.5227 184.185 23.2707 184.502 23.084C184.82 22.8973 185.174 22.7667 185.566 22.692C185.958 22.608 186.36 22.566 186.77 22.566C187.134 22.566 187.503 22.594 187.876 22.65C188.25 22.6967 188.59 22.7947 188.898 22.944C189.206 23.0933 189.458 23.3033 189.654 23.574C189.85 23.8447 189.948 24.1947 189.948 24.624V28.39C189.948 28.7167 189.967 29.0293 190.004 29.328C190.042 29.6267 190.107 29.8507 190.2 30H188.184C188.147 29.888 188.114 29.776 188.086 29.664C188.068 29.5427 188.054 29.4213 188.044 29.3C187.727 29.6267 187.354 29.8553 186.924 29.986C186.495 30.1167 186.056 30.182 185.608 30.182ZM186.35 28.866C186.742 28.866 187.046 28.8007 187.26 28.67C187.475 28.5393 187.634 28.3853 187.736 28.208C187.839 28.0213 187.9 27.8347 187.918 27.648C187.946 27.4613 187.96 27.312 187.96 27.2V26.458C187.876 26.5327 187.774 26.5933 187.652 26.64C187.531 26.6773 187.396 26.71 187.246 26.738C187.097 26.766 186.943 26.7893 186.784 26.808C186.626 26.8267 186.467 26.85 186.308 26.878C186.15 26.906 186 26.9433 185.86 26.99C185.72 27.0367 185.594 27.102 185.482 27.186C185.38 27.2607 185.296 27.3587 185.23 27.48C185.165 27.6013 185.132 27.7553 185.132 27.942C185.132 28.1287 185.165 28.2827 185.23 28.404C185.296 28.516 185.384 28.6093 185.496 28.684C185.608 28.7493 185.739 28.796 185.888 28.824C186.038 28.852 186.192 28.866 186.35 28.866ZM193.255 24.26H190.875V22.762H197.623V24.26H195.243V30H193.255V24.26ZM198.519 22.762H200.507V25.254H202.425C202.789 25.254 203.129 25.3053 203.447 25.408C203.773 25.5013 204.053 25.6507 204.287 25.856C204.529 26.052 204.721 26.2993 204.861 26.598C205.001 26.8873 205.071 27.228 205.071 27.62C205.071 28.0213 205.001 28.3713 204.861 28.67C204.73 28.9687 204.539 29.216 204.287 29.412C204.044 29.608 203.755 29.7573 203.419 29.86C203.092 29.9533 202.733 30 202.341 30H198.519V22.762ZM201.865 28.628C202.229 28.628 202.518 28.5487 202.733 28.39C202.957 28.2313 203.069 27.9747 203.069 27.62C203.069 27.2653 202.952 27.0087 202.719 26.85C202.485 26.682 202.196 26.598 201.851 26.598H200.507V28.628H201.865ZM209.619 30.182C209.068 30.182 208.569 30.0933 208.121 29.916C207.673 29.7293 207.29 29.4727 206.973 29.146C206.655 28.8193 206.408 28.432 206.231 27.984C206.053 27.5267 205.965 27.0273 205.965 26.486C205.965 25.926 206.044 25.408 206.203 24.932C206.371 24.4467 206.613 24.0313 206.931 23.686C207.248 23.3313 207.635 23.056 208.093 22.86C208.55 22.664 209.073 22.566 209.661 22.566C210.09 22.566 210.501 22.622 210.893 22.734C211.294 22.846 211.649 23.0187 211.957 23.252C212.274 23.476 212.531 23.7607 212.727 24.106C212.923 24.4513 213.035 24.8527 213.063 25.31H211.117C210.986 24.4793 210.496 24.064 209.647 24.064C209.329 24.064 209.063 24.1387 208.849 24.288C208.634 24.428 208.457 24.6147 208.317 24.848C208.186 25.072 208.093 25.324 208.037 25.604C207.981 25.884 207.953 26.1547 207.953 26.416C207.953 26.6773 207.981 26.9433 208.037 27.214C208.093 27.4847 208.181 27.732 208.303 27.956C208.433 28.1707 208.606 28.348 208.821 28.488C209.035 28.628 209.297 28.698 209.605 28.698C210.081 28.698 210.445 28.5673 210.697 28.306C210.958 28.0353 211.121 27.676 211.187 27.228H213.105C212.974 28.1893 212.601 28.922 211.985 29.426C211.369 29.93 210.58 30.182 209.619 30.182ZM215.768 27.284C215.254 27.2 214.834 26.9527 214.508 26.542C214.19 26.1313 214.032 25.6273 214.032 25.03C214.032 24.7127 214.088 24.4187 214.2 24.148C214.321 23.868 214.489 23.6253 214.704 23.42C214.918 23.2147 215.17 23.056 215.46 22.944C215.749 22.8227 216.071 22.762 216.426 22.762H220.808V30H218.82V27.452H217.882L215.908 30H213.472L215.768 27.284ZM218.82 24.204H217.238C216.78 24.204 216.468 24.288 216.3 24.456C216.132 24.6147 216.048 24.8293 216.048 25.1C216.048 25.38 216.127 25.604 216.286 25.772C216.454 25.94 216.771 26.024 217.238 26.024H218.82V24.204ZM229.648 30.182C229.097 30.182 228.598 30.0933 228.15 29.916C227.702 29.7293 227.319 29.4727 227.002 29.146C226.685 28.8193 226.437 28.432 226.26 27.984C226.083 27.5267 225.994 27.0273 225.994 26.486C225.994 25.926 226.073 25.408 226.232 24.932C226.4 24.4467 226.643 24.0313 226.96 23.686C227.277 23.3313 227.665 23.056 228.122 22.86C228.579 22.664 229.102 22.566 229.69 22.566C230.119 22.566 230.53 22.622 230.922 22.734C231.323 22.846 231.678 23.0187 231.986 23.252C232.303 23.476 232.56 23.7607 232.756 24.106C232.952 24.4513 233.064 24.8527 233.092 25.31H231.146C231.015 24.4793 230.525 24.064 229.676 24.064C229.359 24.064 229.093 24.1387 228.878 24.288C228.663 24.428 228.486 24.6147 228.346 24.848C228.215 25.072 228.122 25.324 228.066 25.604C228.01 25.884 227.982 26.1547 227.982 26.416C227.982 26.6773 228.01 26.9433 228.066 27.214C228.122 27.4847 228.211 27.732 228.332 27.956C228.463 28.1707 228.635 28.348 228.85 28.488C229.065 28.628 229.326 28.698 229.634 28.698C230.11 28.698 230.474 28.5673 230.726 28.306C230.987 28.0353 231.151 27.676 231.216 27.228H233.134C233.003 28.1893 232.63 28.922 232.014 29.426C231.398 29.93 230.609 30.182 229.648 30.182ZM237.771 30.182C237.202 30.182 236.688 30.0933 236.231 29.916C235.774 29.7387 235.382 29.4867 235.055 29.16C234.728 28.824 234.476 28.4227 234.299 27.956C234.122 27.4893 234.033 26.9667 234.033 26.388C234.033 25.8093 234.122 25.2867 234.299 24.82C234.476 24.344 234.728 23.9427 235.055 23.616C235.382 23.28 235.774 23.0233 236.231 22.846C236.688 22.6593 237.202 22.566 237.771 22.566C238.34 22.566 238.854 22.6593 239.311 22.846C239.778 23.0233 240.174 23.28 240.501 23.616C240.828 23.9427 241.08 24.344 241.257 24.82C241.434 25.2867 241.523 25.8093 241.523 26.388C241.523 26.9667 241.434 27.4893 241.257 27.956C241.08 28.4227 240.828 28.824 240.501 29.16C240.174 29.4867 239.778 29.7387 239.311 29.916C238.854 30.0933 238.34 30.182 237.771 30.182ZM237.771 28.698C238.107 28.698 238.387 28.6327 238.611 28.502C238.844 28.3713 239.026 28.1987 239.157 27.984C239.297 27.76 239.395 27.5127 239.451 27.242C239.507 26.962 239.535 26.6773 239.535 26.388C239.535 26.0987 239.507 25.814 239.451 25.534C239.395 25.254 239.297 25.0067 239.157 24.792C239.026 24.5773 238.844 24.4047 238.611 24.274C238.387 24.134 238.107 24.064 237.771 24.064C237.435 24.064 237.155 24.134 236.931 24.274C236.707 24.4047 236.525 24.5773 236.385 24.792C236.254 25.0067 236.161 25.254 236.105 25.534C236.049 25.814 236.021 26.0987 236.021 26.388C236.021 26.6773 236.049 26.962 236.105 27.242C236.161 27.5127 236.254 27.76 236.385 27.984C236.525 28.1987 236.707 28.3713 236.931 28.502C237.155 28.6327 237.435 28.698 237.771 28.698ZM251.402 30.224C250.627 30.224 249.937 30.0933 249.33 29.832C248.723 29.5613 248.21 29.1927 247.79 28.726C247.37 28.2593 247.048 27.7133 246.824 27.088C246.6 26.4533 246.488 25.772 246.488 25.044C246.488 24.3067 246.6 23.616 246.824 22.972C247.048 22.328 247.37 21.768 247.79 21.292C248.21 20.816 248.723 20.4427 249.33 20.172C249.937 19.9013 250.627 19.766 251.402 19.766C251.943 19.766 252.461 19.8453 252.956 20.004C253.451 20.1627 253.889 20.396 254.272 20.704C254.664 21.0027 254.986 21.376 255.238 21.824C255.49 22.272 255.649 22.7853 255.714 23.364H253.586C253.549 23.112 253.465 22.8833 253.334 22.678C253.203 22.4633 253.04 22.2767 252.844 22.118C252.648 21.9593 252.424 21.838 252.172 21.754C251.929 21.6607 251.673 21.614 251.402 21.614C250.907 21.614 250.487 21.712 250.142 21.908C249.797 22.0947 249.517 22.3513 249.302 22.678C249.087 22.9953 248.929 23.3593 248.826 23.77C248.733 24.1807 248.686 24.6053 248.686 25.044C248.686 25.464 248.733 25.8747 248.826 26.276C248.929 26.668 249.087 27.0227 249.302 27.34C249.517 27.6573 249.797 27.914 250.142 28.11C250.487 28.2967 250.907 28.39 251.402 28.39C252.074 28.39 252.597 28.1847 252.97 27.774C253.353 27.3633 253.586 26.822 253.67 26.15H255.798C255.742 26.7847 255.597 27.354 255.364 27.858C255.131 28.3527 254.823 28.7773 254.44 29.132C254.057 29.4867 253.609 29.7573 253.096 29.944C252.583 30.1307 252.018 30.224 251.402 30.224ZM257.397 30.112C257.313 30.112 257.182 30.098 257.005 30.07C256.828 30.042 256.688 30.0093 256.585 29.972V28.474C256.641 28.4927 256.706 28.5067 256.781 28.516C256.856 28.516 256.93 28.516 257.005 28.516C257.173 28.516 257.322 28.4647 257.453 28.362C257.593 28.25 257.705 28.04 257.789 27.732C257.882 27.424 257.952 26.9853 257.999 26.416C258.055 25.8467 258.083 25.1 258.083 24.176V22.762H263.963V30H261.975V24.26H259.931C259.894 25.2867 259.833 26.1687 259.749 26.906C259.665 27.6433 259.53 28.25 259.343 28.726C259.166 29.202 258.918 29.552 258.601 29.776C258.293 30 257.892 30.112 257.397 30.112ZM266.548 32.534C266.343 32.534 266.137 32.5247 265.932 32.506C265.736 32.4967 265.535 32.4827 265.33 32.464V30.826C265.489 30.8447 265.652 30.8587 265.82 30.868C265.997 30.8867 266.17 30.896 266.338 30.896C266.637 30.896 266.865 30.812 267.024 30.644C267.183 30.476 267.262 30.2613 267.262 30C267.262 29.8413 267.234 29.692 267.178 29.552L264.644 22.762H266.758L268.396 27.718H268.424L270.006 22.762H272.064L269.04 30.896C268.825 31.484 268.527 31.904 268.144 32.156C267.761 32.408 267.229 32.534 266.548 32.534ZM274.732 25.94L272.184 22.762H274.382L276.72 25.786V22.762H278.596V25.786L280.934 22.762H283.132L280.486 25.87L283.412 30H281.116L279.03 26.878L278.596 27.438V30H276.72V27.55L276.202 26.878L274.2 30H271.904L274.732 25.94ZM287.535 30.182C286.835 30.182 286.256 30.0513 285.799 29.79C285.342 29.5287 284.978 29.188 284.707 28.768C284.446 28.348 284.264 27.8767 284.161 27.354C284.058 26.8313 284.007 26.304 284.007 25.772C284.007 25.1373 284.035 24.5307 284.091 23.952C284.147 23.364 284.278 22.832 284.483 22.356C284.688 21.88 284.982 21.4693 285.365 21.124C285.757 20.7693 286.284 20.5033 286.947 20.326C287.152 20.27 287.39 20.2327 287.661 20.214C287.941 20.1953 288.207 20.172 288.459 20.144C288.711 20.116 288.921 20.0787 289.089 20.032C289.266 19.976 289.36 19.8873 289.369 19.766H291.119C291.082 20.214 290.984 20.5687 290.825 20.83C290.676 21.0913 290.456 21.3013 290.167 21.46C289.878 21.6093 289.523 21.7213 289.103 21.796C288.683 21.8613 288.188 21.922 287.619 21.978C287.171 22.0247 286.793 22.132 286.485 22.3C286.177 22.468 285.925 22.6827 285.729 22.944C285.533 23.196 285.384 23.4853 285.281 23.812C285.188 24.1293 285.122 24.4653 285.085 24.82H285.127C285.211 24.5773 285.328 24.3347 285.477 24.092C285.636 23.8493 285.832 23.63 286.065 23.434C286.298 23.238 286.574 23.0793 286.891 22.958C287.208 22.8273 287.572 22.762 287.983 22.762C288.44 22.762 288.87 22.8507 289.271 23.028C289.682 23.2053 290.036 23.4573 290.335 23.784C290.634 24.1107 290.867 24.5027 291.035 24.96C291.212 25.408 291.301 25.912 291.301 26.472C291.301 27.0413 291.212 27.5547 291.035 28.012C290.867 28.4693 290.62 28.8613 290.293 29.188C289.966 29.5053 289.57 29.7527 289.103 29.93C288.636 30.098 288.114 30.182 287.535 30.182ZM287.675 28.698C288.179 28.698 288.576 28.5067 288.865 28.124C289.164 27.7413 289.313 27.186 289.313 26.458C289.313 25.7487 289.168 25.198 288.879 24.806C288.59 24.4047 288.179 24.204 287.647 24.204C287.143 24.204 286.746 24.4047 286.457 24.806C286.168 25.2073 286.023 25.7627 286.023 26.472C286.023 27.2 286.168 27.7553 286.457 28.138C286.756 28.5113 287.162 28.698 287.675 28.698ZM296.109 30.182C295.54 30.182 295.026 30.0933 294.569 29.916C294.112 29.7387 293.72 29.4867 293.393 29.16C293.066 28.824 292.814 28.4227 292.637 27.956C292.46 27.4893 292.371 26.9667 292.371 26.388C292.371 25.8093 292.46 25.2867 292.637 24.82C292.814 24.344 293.066 23.9427 293.393 23.616C293.72 23.28 294.112 23.0233 294.569 22.846C295.026 22.6593 295.54 22.566 296.109 22.566C296.678 22.566 297.192 22.6593 297.649 22.846C298.116 23.0233 298.512 23.28 298.839 23.616C299.166 23.9427 299.418 24.344 299.595 24.82C299.772 25.2867 299.861 25.8093 299.861 26.388C299.861 26.9667 299.772 27.4893 299.595 27.956C299.418 28.4227 299.166 28.824 298.839 29.16C298.512 29.4867 298.116 29.7387 297.649 29.916C297.192 30.0933 296.678 30.182 296.109 30.182ZM296.109 28.698C296.445 28.698 296.725 28.6327 296.949 28.502C297.182 28.3713 297.364 28.1987 297.495 27.984C297.635 27.76 297.733 27.5127 297.789 27.242C297.845 26.962 297.873 26.6773 297.873 26.388C297.873 26.0987 297.845 25.814 297.789 25.534C297.733 25.254 297.635 25.0067 297.495 24.792C297.364 24.5773 297.182 24.4047 296.949 24.274C296.725 24.134 296.445 24.064 296.109 24.064C295.773 24.064 295.493 24.134 295.269 24.274C295.045 24.4047 294.863 24.5773 294.723 24.792C294.592 25.0067 294.499 25.254 294.443 25.534C294.387 25.814 294.359 26.0987 294.359 26.388C294.359 26.6773 294.387 26.962 294.443 27.242C294.499 27.5127 294.592 27.76 294.723 27.984C294.863 28.1987 295.045 28.3713 295.269 28.502C295.493 28.6327 295.773 28.698 296.109 28.698ZM301.153 22.762H303.057V27.662L305.787 22.762H308.041V30H306.137V25.1L303.407 30H301.153V22.762ZM304.583 21.894C304.257 21.894 303.949 21.8567 303.659 21.782C303.379 21.7073 303.132 21.5907 302.917 21.432C302.703 21.264 302.53 21.054 302.399 20.802C302.278 20.55 302.217 20.242 302.217 19.878H303.701C303.72 20.1953 303.795 20.4287 303.925 20.578C304.056 20.7273 304.275 20.802 304.583 20.802C304.882 20.802 305.101 20.732 305.241 20.592C305.381 20.4427 305.456 20.2047 305.465 19.878H306.949C306.949 20.242 306.884 20.55 306.753 20.802C306.632 21.054 306.464 21.264 306.249 21.432C306.035 21.5907 305.783 21.7073 305.493 21.782C305.204 21.8567 304.901 21.894 304.583 21.894ZM313.444 22.762H320.094V30H318.106V24.26H315.432V30H313.444V22.762ZM325.121 30.182C324.551 30.182 324.038 30.0933 323.581 29.916C323.123 29.7387 322.731 29.4867 322.405 29.16C322.078 28.824 321.826 28.4227 321.649 27.956C321.471 27.4893 321.383 26.9667 321.383 26.388C321.383 25.8093 321.471 25.2867 321.649 24.82C321.826 24.344 322.078 23.9427 322.405 23.616C322.731 23.28 323.123 23.0233 323.581 22.846C324.038 22.6593 324.551 22.566 325.121 22.566C325.69 22.566 326.203 22.6593 326.661 22.846C327.127 23.0233 327.524 23.28 327.851 23.616C328.177 23.9427 328.429 24.344 328.607 24.82C328.784 25.2867 328.873 25.8093 328.873 26.388C328.873 26.9667 328.784 27.4893 328.607 27.956C328.429 28.4227 328.177 28.824 327.851 29.16C327.524 29.4867 327.127 29.7387 326.661 29.916C326.203 30.0933 325.69 30.182 325.121 30.182ZM325.121 28.698C325.457 28.698 325.737 28.6327 325.961 28.502C326.194 28.3713 326.376 28.1987 326.507 27.984C326.647 27.76 326.745 27.5127 326.801 27.242C326.857 26.962 326.885 26.6773 326.885 26.388C326.885 26.0987 326.857 25.814 326.801 25.534C326.745 25.254 326.647 25.0067 326.507 24.792C326.376 24.5773 326.194 24.4047 325.961 24.274C325.737 24.134 325.457 24.064 325.121 24.064C324.785 24.064 324.505 24.134 324.281 24.274C324.057 24.4047 323.875 24.5773 323.735 24.792C323.604 25.0067 323.511 25.254 323.455 25.534C323.399 25.814 323.371 26.0987 323.371 26.388C323.371 26.6773 323.399 26.962 323.455 27.242C323.511 27.5127 323.604 27.76 323.735 27.984C323.875 28.1987 324.057 28.3713 324.281 28.502C324.505 28.6327 324.785 28.698 325.121 28.698ZM329.507 28.502H330.375C330.478 28.2967 330.581 28.04 330.683 27.732C330.795 27.424 330.893 27.0787 330.977 26.696C331.071 26.3133 331.145 25.898 331.201 25.45C331.257 25.002 331.285 24.5307 331.285 24.036V22.762H337.067V28.502H338.005V31.988H336.143V30H331.369V31.988H329.507V28.502ZM335.079 28.502V24.246H333.133V24.428C333.133 24.876 333.105 25.3053 333.049 25.716C333.003 26.1267 332.937 26.5093 332.853 26.864C332.769 27.2093 332.681 27.522 332.587 27.802C332.494 28.082 332.405 28.3153 332.321 28.502H335.079ZM338.244 28.502H339.112C339.214 28.2967 339.317 28.04 339.42 27.732C339.532 27.424 339.63 27.0787 339.714 26.696C339.807 26.3133 339.882 25.898 339.938 25.45C339.994 25.002 340.022 24.5307 340.022 24.036V22.762H345.804V28.502H346.742V31.988H344.88V30H340.106V31.988H338.244V28.502ZM343.816 28.502V24.246H341.87V24.428C341.87 24.876 341.842 25.3053 341.786 25.716C341.739 26.1267 341.674 26.5093 341.59 26.864C341.506 27.2093 341.417 27.522 341.324 27.802C341.23 28.082 341.142 28.3153 341.058 28.502H343.816ZM350.984 30.182C350.415 30.182 349.901 30.0933 349.444 29.916C348.987 29.7293 348.599 29.468 348.282 29.132C347.965 28.796 347.717 28.3947 347.54 27.928C347.372 27.4613 347.288 26.948 347.288 26.388C347.288 25.8467 347.377 25.3427 347.554 24.876C347.731 24.4093 347.983 24.008 348.31 23.672C348.637 23.3267 349.024 23.056 349.472 22.86C349.929 22.664 350.433 22.566 350.984 22.566C351.563 22.566 352.071 22.6733 352.51 22.888C352.958 23.1027 353.327 23.392 353.616 23.756C353.915 24.1107 354.139 24.526 354.288 25.002C354.437 25.478 354.512 25.9727 354.512 26.486C354.512 26.5513 354.512 26.6167 354.512 26.682C354.512 26.738 354.507 26.7987 354.498 26.864H349.276C349.304 27.508 349.467 27.9747 349.766 28.264C350.065 28.5533 350.494 28.698 351.054 28.698C351.455 28.698 351.801 28.6 352.09 28.404C352.379 28.1987 352.557 27.984 352.622 27.76H354.372C354.092 28.628 353.663 29.2487 353.084 29.622C352.505 29.9953 351.805 30.182 350.984 30.182ZM352.51 25.604C352.417 25.1 352.249 24.7173 352.006 24.456C351.773 24.1947 351.413 24.064 350.928 24.064C350.601 24.064 350.335 24.12 350.13 24.232C349.925 24.3347 349.757 24.4653 349.626 24.624C349.505 24.7827 349.416 24.9507 349.36 25.128C349.313 25.3053 349.285 25.464 349.276 25.604H352.51ZM355.677 22.762H357.567V23.686H357.595C357.838 23.294 358.146 23.0093 358.519 22.832C358.892 22.6547 359.303 22.566 359.751 22.566C360.32 22.566 360.81 22.6733 361.221 22.888C361.632 23.1027 361.972 23.3873 362.243 23.742C362.514 24.0967 362.714 24.512 362.845 24.988C362.976 25.4547 363.041 25.9447 363.041 26.458C363.041 26.9433 362.976 27.41 362.845 27.858C362.714 28.306 362.514 28.7027 362.243 29.048C361.982 29.3933 361.65 29.6687 361.249 29.874C360.857 30.0793 360.395 30.182 359.863 30.182C359.415 30.182 359 30.0933 358.617 29.916C358.244 29.7293 357.936 29.4587 357.693 29.104H357.665V32.534H355.677V22.762ZM359.331 28.698C359.658 28.698 359.928 28.6327 360.143 28.502C360.367 28.3713 360.544 28.2033 360.675 27.998C360.815 27.7833 360.913 27.5407 360.969 27.27C361.025 26.99 361.053 26.7007 361.053 26.402C361.053 26.1127 361.02 25.828 360.955 25.548C360.899 25.268 360.801 25.0207 360.661 24.806C360.521 24.582 360.339 24.4047 360.115 24.274C359.9 24.134 359.634 24.064 359.317 24.064C358.99 24.064 358.715 24.134 358.491 24.274C358.276 24.4047 358.099 24.5773 357.959 24.792C357.828 25.0067 357.735 25.2587 357.679 25.548C357.623 25.828 357.595 26.1127 357.595 26.402C357.595 26.7007 357.623 26.99 357.679 27.27C357.744 27.5407 357.842 27.7833 357.973 27.998C358.113 28.2033 358.29 28.3713 358.505 28.502C358.729 28.6327 359.004 28.698 359.331 28.698ZM366.237 25.94L363.689 22.762H365.887L368.225 25.786V22.762H370.101V25.786L372.439 22.762H374.637L371.991 25.87L374.917 30H372.621L370.535 26.878L370.101 27.438V30H368.225V27.55L367.707 26.878L365.705 30H363.409L366.237 25.94ZM375.597 22.762H377.585V25.716L380.245 22.762H382.583L379.559 25.954L382.975 30H380.567L378.005 26.99L377.585 27.452V30H375.597V22.762ZM383.636 22.762H385.54V27.662L388.27 22.762H390.524V30H388.62V25.1L385.89 30H383.636V22.762ZM396.137 20.004V30H398.195V22.986H398.223L400.673 30H402.367L404.817 22.916H404.845V30H406.903V20.004H403.809L401.597 26.878H401.569L399.231 20.004H396.137ZM412.198 30.896L415.222 22.762H413.164L411.582 27.718H411.554L409.916 22.762H407.802L410.336 29.552C410.392 29.692 410.42 29.8413 410.42 30C410.42 30.2147 410.355 30.4107 410.224 30.588C410.103 30.7653 409.911 30.868 409.65 30.896C409.454 30.9053 409.258 30.9007 409.062 30.882C408.866 30.8633 408.675 30.8447 408.488 30.826V32.464C408.693 32.4827 408.894 32.4967 409.09 32.506C409.295 32.5247 409.501 32.534 409.706 32.534C410.387 32.534 410.919 32.408 411.302 32.156C411.685 31.904 411.983 31.484 412.198 30.896ZM421.95 26.85V20.004H419.752V26.752C419.752 26.9293 419.743 27.116 419.724 27.312C419.715 27.4987 419.673 27.676 419.598 27.844C419.533 28.0027 419.421 28.1333 419.262 28.236C419.103 28.3387 418.879 28.39 418.59 28.39C418.329 28.39 418.114 28.348 417.946 28.264C417.787 28.18 417.661 28.068 417.568 27.928C417.475 27.7787 417.409 27.6013 417.372 27.396C417.335 27.1907 417.316 26.9667 417.316 26.724V26.276H415.328V27.144C415.328 27.6947 415.421 28.166 415.608 28.558C415.795 28.9407 416.042 29.258 416.35 29.51C416.658 29.7527 417.008 29.93 417.4 30.042C417.792 30.1633 418.198 30.224 418.618 30.224C419.365 30.224 419.957 30.112 420.396 29.888C420.835 29.6547 421.171 29.37 421.404 29.034C421.637 28.6887 421.787 28.32 421.852 27.928C421.917 27.536 421.95 27.1767 421.95 26.85ZM425.431 26.388C425.431 26.0987 425.459 25.814 425.515 25.534C425.571 25.254 425.664 25.0067 425.795 24.792C425.935 24.5773 426.117 24.4047 426.341 24.274C426.565 24.134 426.845 24.064 427.181 24.064C427.517 24.064 427.797 24.134 428.021 24.274C428.254 24.4047 428.436 24.5773 428.567 24.792C428.707 25.0067 428.805 25.254 428.861 25.534C428.917 25.814 428.945 26.0987 428.945 26.388C428.945 26.6773 428.917 26.962 428.861 27.242C428.805 27.5127 428.707 27.76 428.567 27.984C428.436 28.1987 428.254 28.3713 428.021 28.502C427.797 28.6327 427.517 28.698 427.181 28.698C426.845 28.698 426.565 28.6327 426.341 28.502C426.117 28.3713 425.935 28.1987 425.795 27.984C425.664 27.76 425.571 27.5127 425.515 27.242C425.459 26.962 425.431 26.6773 425.431 26.388ZM423.443 26.388C423.443 26.9667 423.532 27.4893 423.709 27.956C423.886 28.4227 424.138 28.824 424.465 29.16C424.792 29.4867 425.184 29.7387 425.641 29.916C426.098 30.0933 426.612 30.182 427.181 30.182C427.75 30.182 428.264 30.0933 428.721 29.916C429.188 29.7387 429.584 29.4867 429.911 29.16C430.238 28.824 430.49 28.4227 430.667 27.956C430.844 27.4893 430.933 26.9667 430.933 26.388C430.933 25.8093 430.844 25.2867 430.667 24.82C430.49 24.344 430.238 23.9427 429.911 23.616C429.584 23.28 429.188 23.0233 428.721 22.846C428.264 22.6593 427.75 22.566 427.181 22.566C426.612 22.566 426.098 22.6593 425.641 22.846C425.184 23.0233 424.792 23.28 424.465 23.616C424.138 23.9427 423.886 24.344 423.709 24.82C423.532 25.2867 423.443 25.8093 423.443 26.388ZM432.31 27.844V30H434.508V27.844H432.31Z" fill="#FF773D"/>
<defs>
<linearGradient id="paint0_linear_2502_57291" x1="322" y1="59.0849" x2="339.001" y2="52.2003" gradientUnits="userSpaceOnUse">
<stop stop-color="#DCB2FD"/>
<stop offset="1" stop-color="#E1BCFF"/>
</linearGradient>
</defs>
</svg>
