<svg width="45" height="18" viewBox="0 0 45 18" fill="none" xmlns="http://www.w3.org/2000/svg">
<g clip-path="url(#clip0)">
<path d="M8.59449 2.32065C8.0807 2.92864 7.25862 3.40818 6.43655 3.33968C6.33379 2.5176 6.73626 1.64415 7.20724 1.10466C7.72104 0.479543 8.62018 0.0342531 9.34806 0C9.43369 0.856327 9.09972 1.69553 8.59449 2.32065ZM9.3395 3.50238C8.1492 3.43387 7.13017 4.17888 6.565 4.17888C5.99126 4.17888 5.12637 3.53663 4.18441 3.55376C2.95986 3.57088 1.82094 4.26451 1.19582 5.36917C-0.0886685 7.5785 0.861855 10.8497 2.10353 12.648C2.71152 13.5385 3.4394 14.5147 4.39849 14.4805C5.30619 14.4462 5.66585 13.8896 6.76195 13.8896C7.86661 13.8896 8.18345 14.4805 9.14254 14.4634C10.1359 14.4462 10.761 13.5728 11.369 12.6822C12.0626 11.6717 12.3452 10.687 12.3623 10.6356C12.3452 10.6185 10.4442 9.89058 10.427 7.69838C10.4099 5.86584 11.9256 4.99239 11.9941 4.94101C11.1378 3.67364 9.80191 3.53663 9.3395 3.50238ZM16.2158 1.01903V14.3692H18.2881V9.80495H21.1568C23.7772 9.80495 25.6183 8.00666 25.6183 5.40343C25.6183 2.80019 23.8114 1.01903 21.2253 1.01903H16.2158ZM18.2881 2.76594H20.6773C22.4756 2.76594 23.5032 3.72502 23.5032 5.41199C23.5032 7.09895 22.4756 8.0666 20.6687 8.0666H18.2881V2.76594ZM29.4032 14.4719C30.7049 14.4719 31.9123 13.8126 32.4603 12.7678H32.5032V14.3692H34.4213V7.72407C34.4213 5.79734 32.8799 4.55566 30.5079 4.55566C28.3071 4.55566 26.6801 5.81446 26.6202 7.54424H28.487C28.6411 6.72217 29.4032 6.18268 30.448 6.18268C31.7153 6.18268 32.4261 6.77355 32.4261 7.86109V8.59753L29.84 8.75167C27.4337 8.89724 26.1321 9.88202 26.1321 11.5947C26.1321 13.3245 27.4765 14.4719 29.4032 14.4719ZM29.9599 12.8877C28.8552 12.8877 28.153 12.3568 28.153 11.5433C28.153 10.7041 28.8295 10.216 30.1226 10.1389L32.4261 9.99334V10.7469C32.4261 11.9971 31.3642 12.8877 29.9599 12.8877ZM36.9818 18C39.0027 18 39.9532 17.2293 40.7838 14.8915L44.4232 4.68411H42.3167L39.8761 12.5709H39.8333L37.3928 4.68411H35.2263L38.7372 14.4034L38.5488 14.9943C38.232 15.9962 37.7182 16.3815 36.8019 16.3815C36.6392 16.3815 36.3224 16.3644 36.1939 16.3473V17.9486C36.3138 17.9829 36.8276 18 36.9818 18Z" fill="black"/>
</g>
<defs>
<clipPath id="clip0">
<rect width="43.844" height="18" fill="white" transform="translate(0.578003)"/>
</clipPath>
</defs>
</svg>
