<svg width="16" height="14" viewBox="0 0 16 14" fill="none" xmlns="http://www.w3.org/2000/svg">
<path d="M8 1.4458C7.39941 0.735352 6.06641 0.105469 4.49902 0.105469C2.41162 0.105469 0.719727 1.18945 0.272949 2.21484V12.4321C0.272949 13.0986 0.712402 13.355 1.18848 13.355C1.55469 13.355 1.76709 13.2451 1.99414 13.0767C2.41162 12.7324 3.20996 12.2637 4.49902 12.2637C5.79541 12.2637 6.70361 12.7178 7.07715 13.0327C7.29688 13.2012 7.55322 13.355 8 13.355C8.44678 13.355 8.6958 13.1865 8.92285 13.0327C9.31104 12.7397 10.1973 12.2637 11.4937 12.2637C12.79 12.2637 13.5957 12.7397 14.0059 13.0767C14.2329 13.2451 14.4453 13.355 14.8042 13.355C15.2876 13.355 15.7271 13.0986 15.7271 12.4321V2.21484C15.2729 1.18945 13.5811 0.105469 11.4937 0.105469C9.93359 0.105469 8.60059 0.735352 8 1.4458ZM1.75244 2.68359C1.93555 2.23682 2.94629 1.4751 4.49902 1.4751C6.05908 1.4751 7.09912 2.24414 7.26025 2.68359V11.6411C6.57178 11.1431 5.56836 10.8867 4.49902 10.8867C3.42969 10.8867 2.43359 11.1431 1.75244 11.6704V2.68359ZM14.2476 2.68359V11.6704C13.5591 11.1431 12.563 10.8867 11.4937 10.8867C10.4243 10.8867 9.4209 11.1431 8.73975 11.6411V2.68359C8.90088 2.24414 9.94092 1.4751 11.4937 1.4751C13.0537 1.4751 14.0571 2.23682 14.2476 2.68359Z" fill="black"/>
</svg>
