<svg width="13" height="13" viewBox="0 0 13 13" fill="none" xmlns="http://www.w3.org/2000/svg">
<path fill-rule="evenodd" clip-rule="evenodd" d="M12.6255 0.625582C12.153 0.153102 11.3869 0.153166 10.9143 0.625723L6.92336 4.61668L3.00878 0.702095C2.5363 0.229615 1.7702 0.229679 1.29764 0.702236C0.825084 1.17479 0.825021 1.9409 1.2975 2.41338L5.21208 6.32796L1.22113 10.3189C0.748569 10.7915 0.748506 11.5576 1.22099 12.0301C1.69347 12.5025 2.45957 12.5025 2.93213 12.0299L6.92308 8.03896L10.8377 11.9535C11.3101 12.426 12.0762 12.426 12.5488 11.9534C13.0214 11.4808 13.0214 10.7147 12.5489 10.2423L8.63436 6.32768L12.6253 2.33672C13.0979 1.86417 13.0979 1.09806 12.6255 0.625582Z" fill="#3C3C43" fill-opacity="0.6"/>
</svg>
