<svg width="17" height="20" viewBox="0 0 17 20" fill="none" xmlns="http://www.w3.org/2000/svg">
<path d="M3.25537 19.1528H10.3818C11.9565 19.1528 12.7402 18.3252 12.7402 16.7432V15.4761H14.1831C15.7505 15.4761 16.5708 14.6484 16.5708 13.0664V6.94336C16.5708 5.97656 16.373 5.36133 15.7871 4.76807L12.1396 1.04736C11.583 0.483398 10.9312 0.263672 10.0815 0.263672H7.07861C5.51123 0.263672 4.69092 1.09131 4.69092 2.67334V4.02832H3.25537C1.68799 4.02832 0.867676 4.86328 0.867676 6.44531V16.7432C0.867676 18.3252 1.68799 19.1528 3.25537 19.1528ZM12.7402 10.8765C12.7402 9.8877 12.6157 9.42627 12.0005 8.79639L8.03076 4.76807C7.4668 4.18945 6.97607 4.04297 6.15576 4.02832V2.76855C6.15576 2.10205 6.50732 1.72852 7.21045 1.72852H10.1841V5.33203C10.1841 6.24023 10.6675 6.72363 11.5684 6.72363H15.106V12.9712C15.106 13.645 14.7617 14.0112 14.0513 14.0112H12.7402V10.8765ZM11.7515 5.51514C11.4951 5.51514 11.3926 5.40527 11.3926 5.15625V1.99219L14.8569 5.51514H11.7515ZM3.37988 17.688C2.67676 17.688 2.3252 17.3218 2.3252 16.6479V6.54053C2.3252 5.8667 2.67676 5.49316 3.38721 5.49316H5.7749V9.47754C5.7749 10.5396 6.29492 11.0522 7.34961 11.0522H11.2754V16.6479C11.2754 17.3218 10.9238 17.688 10.2207 17.688H3.37988ZM7.48877 9.77051C7.18848 9.77051 7.05664 9.63867 7.05664 9.33838V5.68359L11.085 9.77051H7.48877Z" fill="black"/>
</svg>
