<svg width="26" height="26" viewBox="0 0 26 26" fill="none" xmlns="http://www.w3.org/2000/svg">
<path d="M4.41066 10.0173L4.02799 8.59466C3.64266 7.16932 4.48932 5.70399 5.91599 5.32399L19.3067 1.75599C20.72 1.37999 22.1867 2.22666 22.568 3.63866L24.9067 12.3173C25.2907 13.7427 24.4427 15.208 23.0187 15.588L20.2 16.3387" stroke="#494C55" stroke-width="1.5" stroke-linecap="round" stroke-linejoin="round"/>
<path d="M1 15.4533H20.2M3.66667 24.3333H17.5333C19.0067 24.3333 20.2 23.14 20.2 21.6666V12.684C20.2 11.2106 19.0067 10.0173 17.5333 10.0173H3.66667C2.19333 10.0173 1 11.2106 1 12.684V21.6666C1 23.14 2.19467 24.3333 3.66667 24.3333V24.3333Z" stroke="#494C55" stroke-width="1.5" stroke-linecap="round" stroke-linejoin="round"/>
</svg>
