<svg width="40" height="26" viewBox="0 0 40 26" fill="none" xmlns="http://www.w3.org/2000/svg">
<rect x="0.25" y="0.25" width="39.5" height="25.5" rx="1.75" fill="white"/>
<path fill-rule="evenodd" clip-rule="evenodd" d="M19.5209 18.5463C18.1947 19.6921 16.4745 20.3838 14.5946 20.3838C10.4002 20.3838 6.99991 16.94 6.99991 12.6919C6.99991 8.4438 10.4002 5.00002 14.5946 5.00002C16.4745 5.00002 18.1948 5.69171 19.521 6.8375C20.8471 5.69171 22.5674 5.00002 24.4472 5.00002C28.6417 5.00002 32.042 8.4438 32.042 12.6919C32.042 16.94 28.6417 20.3838 24.4472 20.3838C22.5674 20.3838 20.8471 19.6921 19.5209 18.5463Z" fill="#ED0006"/>
<path fill-rule="evenodd" clip-rule="evenodd" d="M19.5208 18.5464C21.1537 17.1355 22.1892 15.0362 22.1892 12.6919C22.1892 10.3477 21.1537 8.24833 19.5208 6.83749C20.8469 5.69171 22.5672 5.00003 24.447 5.00003C28.6415 5.00003 32.0418 8.44381 32.0418 12.6919C32.0418 16.94 28.6415 20.3838 24.447 20.3838C22.5672 20.3838 20.8469 19.6921 19.5208 18.5464Z" fill="#F9A000"/>
<path fill-rule="evenodd" clip-rule="evenodd" d="M19.521 18.5464C21.1539 17.1355 22.1893 15.0362 22.1893 12.692C22.1893 10.3478 21.1539 8.24845 19.521 6.83762C17.888 8.24845 16.8526 10.3478 16.8526 12.692C16.8526 15.0362 17.888 17.1355 19.521 18.5464Z" fill="#FF5E00"/>
<rect x="0.25" y="0.25" width="39.5" height="25.5" rx="1.75" stroke="#B2B2B2" stroke-width="0.5" style="mix-blend-mode:multiply"/>
</svg>
