<svg width="20" height="21" viewBox="0 0 20 21" fill="none" xmlns="http://www.w3.org/2000/svg">
<path d="M15 4.31698C15.925 4.14998 16.894 4.05298 17.956 4.01698C18.524 3.99798 19 4.44798 19 5.01598V16.853C19 17.395 18.567 17.843 18.026 17.851C14.934 17.898 12.606 18.468 10 20C7.394 18.468 5.066 17.898 1.974 17.852C1.433 17.844 1 17.395 1 16.853V5.01598C1 4.45698 1.459 3.99798 2.017 4.01598C5.088 4.11498 7.406 4.69298 10 6.14598" stroke="white" stroke-width="1.5" stroke-linecap="round" stroke-linejoin="round"/>
<path d="M15 14.238V2.012C15 1.283 14.234 0.774 13.583 1.101C11.827 1.981 10.347 3.77 10 5.612V20C10.396 17.901 12.261 15.871 14.331 15.176C14.733 15.041 15 14.662 15 14.238V14.238Z" stroke="white" stroke-width="1.5" stroke-linecap="round" stroke-linejoin="round"/>
</svg>
