<svg width="10" height="10" viewBox="0 0 10 10" fill="none" xmlns="http://www.w3.org/2000/svg">
<path d="M3.8208 10C3.8208 9.32728 3.8208 8.6781 3.8208 8.05247C3.8208 7.42011 3.8208 6.83148 3.8208 6.28658V3.72351C3.8208 3.17188 3.8208 2.58325 3.8208 1.95762C3.8208 1.32526 3.8208 0.672721 3.8208 0H6.1689C6.1689 0.672721 6.1689 1.32526 6.1689 1.95762C6.1689 2.58325 6.1689 3.17188 6.1689 3.72351V6.28658C6.1689 6.83148 6.1689 7.42011 6.1689 8.05247C6.1689 8.6781 6.1689 9.32728 6.1689 10H3.8208ZM0 6.12513V3.88496C0.686577 3.88496 1.34912 3.88496 1.98764 3.88496C2.63302 3.88496 3.23378 3.88496 3.78991 3.88496H6.19979C6.76279 3.88496 7.36354 3.88496 8.00206 3.88496C8.64744 3.88496 9.31342 3.88496 10 3.88496V6.12513C9.31342 6.12513 8.64744 6.12513 8.00206 6.12513C7.36354 6.12513 6.76279 6.12513 6.19979 6.12513H3.78991C3.23378 6.12513 2.63302 6.12513 1.98764 6.12513C1.34912 6.12513 0.686577 6.12513 0 6.12513Z" fill="#808697"/>
</svg>
