<svg width="64" height="12" viewBox="0 0 64 12" fill="none" xmlns="http://www.w3.org/2000/svg">
<path d="M0.988297 11.352C0.988297 10.92 0.988297 10.494 0.988297 10.074C0.988297 9.654 0.988297 9.196 0.988297 8.7V5.796C0.988297 5.344 0.988297 4.886 0.988297 4.422C0.988297 3.958 0.988297 3.492 0.988297 3.024L2.3503 2.946L2.3923 3.75H2.5243C2.6443 3.574 2.7903 3.42 2.9623 3.288C3.1383 3.152 3.3383 3.048 3.5623 2.976C3.7863 2.904 4.0323 2.868 4.3003 2.868C4.8323 2.868 5.2823 3.006 5.6503 3.282C6.0183 3.554 6.2963 3.928 6.4843 4.404C6.6723 4.876 6.7663 5.408 6.7663 6C6.7663 6.556 6.6783 7.074 6.5023 7.554C6.3263 8.034 6.0563 8.42 5.6923 8.712C5.3283 9.004 4.8703 9.15 4.3183 9.15C4.0663 9.15 3.8363 9.116 3.6283 9.048C3.4243 8.984 3.2383 8.89 3.0703 8.766C2.9023 8.642 2.7503 8.492 2.6143 8.316H2.5123V8.778C2.5123 9.234 2.5123 9.66 2.5123 10.056C2.5123 10.456 2.5123 10.872 2.5123 11.304L0.988297 11.352ZM3.7663 7.836C4.0983 7.836 4.3703 7.75 4.5823 7.578C4.7983 7.402 4.9563 7.176 5.0563 6.9C5.1563 6.624 5.2063 6.328 5.2063 6.012C5.2063 5.68 5.1523 5.378 5.0443 5.106C4.9403 4.83 4.7803 4.61 4.5643 4.446C4.3523 4.278 4.0823 4.194 3.7543 4.194C3.5903 4.194 3.4323 4.22 3.2803 4.272C3.1283 4.32 2.9863 4.392 2.8543 4.488C2.7223 4.58 2.6083 4.694 2.5123 4.83V7.068C2.6043 7.224 2.7103 7.36 2.8303 7.476C2.9503 7.592 3.0883 7.682 3.2443 7.746C3.4003 7.806 3.5743 7.836 3.7663 7.836ZM10.8679 9.15C10.3399 9.15 9.87986 9.066 9.48786 8.898C9.09586 8.726 8.76986 8.492 8.50986 8.196C8.24986 7.9 8.05586 7.562 7.92786 7.182C7.79986 6.802 7.73586 6.404 7.73586 5.988C7.73586 5.392 7.85586 4.86 8.09586 4.392C8.33586 3.92 8.68586 3.548 9.14586 3.276C9.60986 3.004 10.1739 2.868 10.8379 2.868C11.3499 2.868 11.7979 2.948 12.1819 3.108C12.5699 3.264 12.8939 3.484 13.1539 3.768C13.4179 4.052 13.6159 4.384 13.7479 4.764C13.8799 5.14 13.9459 5.548 13.9459 5.988C13.9459 6.588 13.8239 7.126 13.5799 7.602C13.3399 8.078 12.9899 8.456 12.5299 8.736C12.0699 9.012 11.5159 9.15 10.8679 9.15ZM10.8619 7.89C11.2059 7.89 11.4899 7.8 11.7139 7.62C11.9419 7.436 12.1119 7.2 12.2239 6.912C12.3359 6.624 12.3919 6.316 12.3919 5.988C12.3919 5.604 12.3279 5.274 12.1999 4.998C12.0759 4.718 11.8979 4.504 11.6659 4.356C11.4339 4.204 11.1639 4.128 10.8559 4.128C10.5159 4.128 10.2279 4.212 9.99186 4.38C9.75986 4.544 9.58386 4.766 9.46386 5.046C9.34786 5.326 9.28986 5.64 9.28986 5.988C9.28986 6.316 9.34786 6.624 9.46386 6.912C9.57986 7.2 9.75386 7.436 9.98586 7.62C10.2219 7.8 10.5139 7.89 10.8619 7.89ZM16.2934 9C16.1774 8.624 16.0594 8.248 15.9394 7.872C15.8234 7.492 15.7034 7.11 15.5794 6.726L15.2434 5.664C15.1034 5.22 14.9634 4.78 14.8234 4.344C14.6874 3.908 14.5494 3.468 14.4094 3.024L16.0294 2.976C16.1454 3.416 16.2654 3.878 16.3894 4.362C16.5174 4.842 16.6394 5.304 16.7554 5.748L17.1934 7.41H17.3134L17.7334 5.718C17.8454 5.266 17.9574 4.818 18.0694 4.374C18.1814 3.93 18.2954 3.48 18.4114 3.024H19.8394C19.9514 3.456 20.0654 3.9 20.1814 4.356C20.2974 4.812 20.4114 5.262 20.5234 5.706L20.9554 7.41H21.0754L21.5134 5.676C21.6254 5.244 21.7394 4.794 21.8554 4.326C21.9754 3.854 22.0854 3.42 22.1854 3.024H23.8234C23.6834 3.464 23.5434 3.904 23.4034 4.344C23.2634 4.784 23.1234 5.224 22.9834 5.664L22.6534 6.714C22.5294 7.098 22.4054 7.482 22.2814 7.866C22.1614 8.25 22.0414 8.628 21.9214 9H20.1934C20.0854 8.604 19.9734 8.196 19.8574 7.776C19.7414 7.352 19.6294 6.948 19.5214 6.564L19.1134 5.082H18.9934L18.5974 6.588C18.4934 6.968 18.3854 7.368 18.2734 7.788C18.1654 8.204 18.0574 8.608 17.9494 9H16.2934ZM27.5347 9.15C26.7827 9.15 26.1667 9.014 25.6867 8.742C25.2067 8.47 24.8527 8.096 24.6247 7.62C24.3967 7.144 24.2827 6.6 24.2827 5.988C24.2827 5.38 24.3907 4.842 24.6067 4.374C24.8267 3.902 25.1487 3.534 25.5727 3.27C25.9967 3.006 26.5167 2.874 27.1327 2.874C27.6647 2.874 28.1187 2.972 28.4947 3.168C28.8747 3.36 29.1667 3.65 29.3707 4.038C29.5747 4.422 29.6767 4.906 29.6767 5.49C29.6767 5.646 29.6727 5.786 29.6647 5.91C29.6607 6.034 29.6487 6.156 29.6287 6.276L28.3027 5.742C28.3107 5.686 28.3167 5.63 28.3207 5.574C28.3247 5.514 28.3267 5.458 28.3267 5.406C28.3267 4.966 28.2167 4.622 27.9967 4.374C27.7767 4.122 27.4927 3.996 27.1447 3.996C26.8807 3.996 26.6487 4.072 26.4487 4.224C26.2487 4.372 26.0907 4.58 25.9747 4.848C25.8587 5.116 25.8007 5.426 25.8007 5.778V6.012C25.8007 6.4 25.8687 6.734 26.0047 7.014C26.1407 7.29 26.3507 7.504 26.6347 7.656C26.9187 7.804 27.2767 7.878 27.7087 7.878C27.8767 7.878 28.0647 7.864 28.2727 7.836C28.4847 7.804 28.6987 7.756 28.9147 7.692C29.1307 7.628 29.3327 7.546 29.5207 7.446L29.5687 8.754C29.4167 8.83 29.2387 8.898 29.0347 8.958C28.8307 9.018 28.6027 9.064 28.3507 9.096C28.0987 9.132 27.8267 9.15 27.5347 9.15ZM24.8827 6.276V5.322L28.7287 5.256L29.6287 5.598V6.276H24.8827ZM30.9649 9C30.9649 8.568 30.9649 8.15 30.9649 7.746C30.9649 7.342 30.9649 6.892 30.9649 6.396V5.796C30.9649 5.344 30.9649 4.886 30.9649 4.422C30.9649 3.958 30.9649 3.492 30.9649 3.024L32.2609 2.946L32.3209 4.086H32.4529C32.6129 3.746 32.7909 3.49 32.9869 3.318C33.1829 3.142 33.3829 3.024 33.5869 2.964C33.7949 2.9 33.9889 2.868 34.1689 2.868C34.2649 2.868 34.3689 2.876 34.4809 2.892C34.5969 2.908 34.7049 2.936 34.8049 2.976L34.6669 4.47C34.5229 4.45 34.3909 4.436 34.2709 4.428C34.1549 4.416 34.0249 4.41 33.8809 4.41C33.7689 4.41 33.6489 4.424 33.5209 4.452C33.3929 4.48 33.2669 4.536 33.1429 4.62C33.0189 4.7 32.9009 4.818 32.7889 4.974C32.6769 5.13 32.5769 5.334 32.4889 5.586V6.474C32.4889 6.93 32.4889 7.358 32.4889 7.758C32.4889 8.154 32.4889 8.568 32.4889 9H30.9649ZM38.5855 9.15C37.8335 9.15 37.2175 9.014 36.7375 8.742C36.2575 8.47 35.9035 8.096 35.6755 7.62C35.4475 7.144 35.3335 6.6 35.3335 5.988C35.3335 5.38 35.4415 4.842 35.6575 4.374C35.8775 3.902 36.1995 3.534 36.6235 3.27C37.0475 3.006 37.5675 2.874 38.1835 2.874C38.7155 2.874 39.1695 2.972 39.5455 3.168C39.9255 3.36 40.2175 3.65 40.4215 4.038C40.6255 4.422 40.7275 4.906 40.7275 5.49C40.7275 5.646 40.7235 5.786 40.7155 5.91C40.7115 6.034 40.6995 6.156 40.6795 6.276L39.3535 5.742C39.3615 5.686 39.3675 5.63 39.3715 5.574C39.3755 5.514 39.3775 5.458 39.3775 5.406C39.3775 4.966 39.2675 4.622 39.0475 4.374C38.8275 4.122 38.5435 3.996 38.1955 3.996C37.9315 3.996 37.6995 4.072 37.4995 4.224C37.2995 4.372 37.1415 4.58 37.0255 4.848C36.9095 5.116 36.8515 5.426 36.8515 5.778V6.012C36.8515 6.4 36.9195 6.734 37.0555 7.014C37.1915 7.29 37.4015 7.504 37.6855 7.656C37.9695 7.804 38.3275 7.878 38.7595 7.878C38.9275 7.878 39.1155 7.864 39.3235 7.836C39.5355 7.804 39.7495 7.756 39.9655 7.692C40.1815 7.628 40.3835 7.546 40.5715 7.446L40.6195 8.754C40.4675 8.83 40.2895 8.898 40.0855 8.958C39.8815 9.018 39.6535 9.064 39.4015 9.096C39.1495 9.132 38.8775 9.15 38.5855 9.15ZM35.9335 6.276V5.322L39.7795 5.256L40.6795 5.598V6.276H35.9335ZM44.1216 9.15C43.5696 9.15 43.1116 9.004 42.7476 8.712C42.3836 8.42 42.1136 8.034 41.9376 7.554C41.7616 7.074 41.6736 6.556 41.6736 6C41.6736 5.408 41.7676 4.876 41.9556 4.404C42.1436 3.928 42.4216 3.554 42.7896 3.282C43.1576 3.006 43.6076 2.868 44.1396 2.868C44.3916 2.868 44.6216 2.902 44.8296 2.97C45.0376 3.034 45.2216 3.126 45.3816 3.246C45.5456 3.362 45.6836 3.498 45.7956 3.654H45.9276V3.078C45.9276 2.586 45.9276 2.104 45.9276 1.632C45.9276 1.156 45.9276 0.681999 45.9276 0.21L47.4516 0.0659995C47.4516 0.541999 47.4516 1.028 47.4516 1.524C47.4516 2.016 47.4516 2.534 47.4516 3.078V6.396C47.4516 6.892 47.4516 7.342 47.4516 7.746C47.4516 8.15 47.4516 8.568 47.4516 9H46.1496L46.0596 8.202H45.9456C45.7936 8.41 45.6276 8.584 45.4476 8.724C45.2676 8.864 45.0676 8.97 44.8476 9.042C44.6276 9.114 44.3856 9.15 44.1216 9.15ZM44.6736 7.836C44.8656 7.836 45.0396 7.806 45.1956 7.746C45.3516 7.682 45.4896 7.592 45.6096 7.476C45.7296 7.36 45.8356 7.224 45.9276 7.068V4.83C45.8316 4.694 45.7176 4.58 45.5856 4.488C45.4576 4.392 45.3156 4.32 45.1596 4.272C45.0076 4.22 44.8496 4.194 44.6856 4.194C44.3576 4.194 44.0856 4.278 43.8696 4.446C43.6576 4.61 43.4976 4.83 43.3896 5.106C43.2856 5.378 43.2336 5.68 43.2336 6.012C43.2336 6.328 43.2836 6.624 43.3836 6.9C43.4876 7.176 43.6456 7.402 43.8576 7.578C44.0696 7.75 44.3416 7.836 44.6736 7.836ZM54.6269 9.15C54.3549 9.15 54.1069 9.114 53.8829 9.042C53.6629 8.97 53.4609 8.866 53.2769 8.73C53.0969 8.594 52.9329 8.43 52.7849 8.238H52.6709L52.5149 9H51.2969C51.2969 8.568 51.2969 8.15 51.2969 7.746C51.2969 7.342 51.2969 6.892 51.2969 6.396V3.078C51.2969 2.586 51.2969 2.102 51.2969 1.626C51.2969 1.146 51.2969 0.674 51.2969 0.21L52.8209 0.0659995C52.8209 0.541999 52.8209 1.028 52.8209 1.524C52.8209 2.016 52.8209 2.534 52.8209 3.078V3.654H52.9529C53.0609 3.498 53.1969 3.362 53.3609 3.246C53.5249 3.126 53.7109 3.034 53.9189 2.97C54.1269 2.902 54.3569 2.868 54.6089 2.868C55.1409 2.868 55.5909 3.006 55.9589 3.282C56.3269 3.554 56.6049 3.928 56.7929 4.404C56.9809 4.876 57.0749 5.408 57.0749 6C57.0749 6.556 56.9869 7.074 56.8109 7.554C56.6349 8.034 56.3649 8.42 56.0009 8.712C55.6369 9.004 55.1789 9.15 54.6269 9.15ZM54.0749 7.836C54.4069 7.836 54.6789 7.75 54.8909 7.578C55.1069 7.402 55.2649 7.176 55.3649 6.9C55.4649 6.624 55.5149 6.328 55.5149 6.012C55.5149 5.68 55.4609 5.378 55.3529 5.106C55.2489 4.83 55.0889 4.61 54.8729 4.446C54.6609 4.278 54.3909 4.194 54.0629 4.194C53.8989 4.194 53.7409 4.22 53.5889 4.272C53.4369 4.32 53.2949 4.392 53.1629 4.488C53.0309 4.58 52.9169 4.694 52.8209 4.83V7.068C52.9129 7.224 53.0189 7.36 53.1389 7.476C53.2589 7.592 53.3969 7.682 53.5529 7.746C53.7089 7.806 53.8829 7.836 54.0749 7.836ZM58.8287 11.352C58.9927 10.948 59.1567 10.538 59.3207 10.122C59.4887 9.706 59.6527 9.298 59.8127 8.898V9.204C59.6687 8.792 59.5207 8.378 59.3687 7.962C59.2207 7.542 59.0747 7.132 58.9307 6.732L58.5467 5.652C58.3947 5.224 58.2367 4.786 58.0727 4.338C57.9127 3.886 57.7567 3.448 57.6047 3.024L59.2487 2.976C59.3807 3.436 59.5087 3.886 59.6327 4.326C59.7607 4.766 59.8907 5.218 60.0227 5.682L60.5087 7.398H60.6467L61.1807 5.682C61.3207 5.234 61.4587 4.792 61.5947 4.356C61.7307 3.916 61.8687 3.472 62.0087 3.024H63.6347C63.5107 3.344 63.3907 3.654 63.2747 3.954C63.1587 4.254 63.0307 4.584 62.8907 4.944C62.7507 5.304 62.5827 5.734 62.3867 6.234L61.7327 7.914C61.4367 8.674 61.1847 9.32 60.9767 9.852C60.7727 10.388 60.5847 10.872 60.4127 11.304L58.8287 11.352Z" fill="white"/>
</svg>
