<svg width="23" height="9" viewBox="0 0 23 9" fill="none" xmlns="http://www.w3.org/2000/svg">
<path d="M6.33643 8.76758C8.62158 8.76758 10.4819 6.9292 10.5625 4.69531C10.8774 4.57812 11.2217 4.53418 11.5 4.53418C11.7856 4.53418 12.1226 4.57812 12.4375 4.69531C12.5254 6.95117 14.3784 8.76758 16.6709 8.76758C18.8462 8.76758 20.6406 7.12695 20.8823 5.0249H21.7832C22.1348 5.0249 22.2666 4.81982 22.2666 4.52686V4.19727C22.2666 3.89697 22.1348 3.70654 21.7832 3.70654H20.8311C20.4429 1.77295 18.729 0.300781 16.6709 0.300781C14.7007 0.300781 13.0601 1.64111 12.5767 3.44287C12.2324 3.31104 11.8296 3.25977 11.5 3.25977C11.1704 3.25977 10.7676 3.31104 10.4233 3.44287C9.93994 1.64111 8.29199 0.300781 6.33643 0.300781C4.28564 0.300781 2.5791 1.7583 2.18359 3.66992H1.22412C0.872559 3.66992 0.733398 3.86035 0.733398 4.16064V4.52686C0.733398 4.81982 0.872559 5.0249 1.22412 5.0249H2.11768C2.35938 7.12695 4.15381 8.76758 6.33643 8.76758ZM6.33643 7.46387C4.71777 7.46387 3.40674 6.16016 3.40674 4.53418C3.40674 2.91553 4.71777 1.61182 6.33643 1.61182C7.94775 1.61182 9.25879 2.91553 9.25879 4.53418C9.25879 6.16016 7.9624 7.46387 6.33643 7.46387ZM16.6709 7.46387C15.0376 7.46387 13.7412 6.16016 13.7412 4.53418C13.7412 2.91553 15.0376 1.61182 16.6709 1.61182C18.2822 1.61182 19.5933 2.91553 19.5933 4.53418C19.5933 6.16016 18.2822 7.46387 16.6709 7.46387Z" fill="black"/>
</svg>
