<svg width="14" height="15" viewBox="0 0 14 15" fill="none" xmlns="http://www.w3.org/2000/svg">
<path d="M5.77686 12.0771C6.94141 12.0771 8.03271 11.7256 8.94092 11.125L12.1489 14.3403C12.3613 14.5454 12.6323 14.6479 12.9253 14.6479C13.5332 14.6479 13.98 14.1719 13.98 13.5713C13.98 13.293 13.8848 13.022 13.6797 12.8169L10.4937 9.61621C11.1528 8.68604 11.541 7.54346 11.541 6.31299C11.541 3.1416 8.94824 0.548828 5.77686 0.548828C2.60547 0.548828 0.0126953 3.1416 0.0126953 6.31299C0.0126953 9.48438 2.60547 12.0771 5.77686 12.0771ZM5.77686 10.5391C3.45508 10.5391 1.55078 8.63477 1.55078 6.31299C1.55078 3.99854 3.45508 2.08691 5.77686 2.08691C8.09863 2.08691 10.0029 3.99854 10.0029 6.31299C10.0029 8.63477 8.09863 10.5391 5.77686 10.5391Z" fill="black"/>
</svg>
