<svg width="18" height="17" viewBox="0 0 18 17" fill="none" xmlns="http://www.w3.org/2000/svg">
<path d="M3.90967 15.8804C4.26123 16.144 4.69336 16.0635 5.19141 15.6973L9 12.8994L12.8013 15.6973C13.2993 16.0635 13.7314 16.144 14.083 15.8804C14.4272 15.624 14.5005 15.1919 14.3027 14.6133L12.8013 10.1382L16.6392 7.38428C17.1372 7.03271 17.3423 6.63721 17.2031 6.22705C17.064 5.81689 16.6758 5.61182 16.0605 5.62646L11.3584 5.65576L9.92285 1.15869C9.73242 0.572754 9.43213 0.257812 9 0.257812C8.56055 0.257812 8.26025 0.572754 8.06982 1.15869L6.6416 5.65576L1.93213 5.62646C1.31689 5.61182 0.928711 5.81689 0.789551 6.22705C0.650391 6.63721 0.862793 7.03271 1.35352 7.38428L5.19141 10.1382L3.68994 14.6133C3.49219 15.1919 3.56543 15.624 3.90967 15.8804ZM5.2207 14.0859C5.20605 14.0713 5.20605 14.064 5.2207 14.02L6.60498 10.1162C6.72949 9.75732 6.69287 9.53027 6.34863 9.30322L2.92822 6.95947C2.89893 6.94482 2.88428 6.93018 2.89893 6.9082C2.90625 6.89355 2.9209 6.88623 2.95752 6.88623L7.10303 6.98877C7.48389 6.99609 7.68164 6.87891 7.7915 6.49805L8.95605 2.52832C8.9707 2.48438 8.97803 2.46973 9 2.46973C9.01465 2.46973 9.0293 2.48438 9.03662 2.52832L10.2012 6.49805C10.311 6.87891 10.5088 6.99609 10.897 6.98877L15.0352 6.88623C15.0791 6.88623 15.0938 6.89355 15.1011 6.9082C15.1084 6.93018 15.0938 6.9375 15.0645 6.95947L11.644 9.30322C11.3071 9.53027 11.2632 9.75732 11.395 10.1162L12.772 14.02C12.7866 14.064 12.7866 14.0713 12.772 14.0859C12.7646 14.1006 12.7427 14.0933 12.7134 14.0713L9.43213 11.5444C9.12451 11.3027 8.86816 11.3027 8.56055 11.5444L5.2793 14.0713C5.25 14.0933 5.23535 14.1006 5.2207 14.0859Z" fill="black"/>
</svg>
